<svg width="150.06875px" height="152px" xmlns="http://www.w3.org/2000/svg" viewBox="174.965625 -1 150.06875 152" style="background: rgba(255, 255, 255, 0);" preserveAspectRatio="xMidYMid"><defs><filter id="editing-hole" x="-100%" y="-100%" width="300%" height="300%"><feFlood flood-color="rgba(100%,100%,100%,0)" result="black"></feFlood><feMorphology operator="dilate" radius="2" in="SourceGraphic" result="erode"></feMorphology><feGaussianBlur in="erode" stdDeviation="4" result="blur"></feGaussianBlur><feOffset in="blur" dx="2" dy="2" result="offset"></feOffset><feComposite operator="atop" in="offset" in2="black" result="merge"></feComposite><feComposite operator="in" in="merge" in2="SourceGraphic" result="inner-shadow"></feComposite></filter></defs><g filter="url(#editing-hole)"><g transform="translate(201.33001232147217, 99.35499954223633)"><path d="M10.15-38.34L10.15-38.34Q10.15-40.61 9.62-41.39L9.62-41.39L9.62-41.39Q9.09-42.17 7.53-42.17L7.53-42.17L7.53-42.17Q6.82-42.17 6.11-42.10L6.11-42.10L6.11-42.10Q5.40-42.03 5.11-42.03L5.11-42.03L4.97-42.32L5.47-45.44L5.47-45.44Q6.32-45.37 8.66-45.30L8.66-45.30L8.66-45.30Q11.01-45.23 13.35-45.23L13.35-45.23L13.35-45.23Q15.27-45.23 17.71-45.48L17.71-45.48L17.71-45.48Q20.16-45.72 20.95-45.87L20.95-45.87L20.66-42.67L20.66-42.67Q18.03-42.25 17.04-41.36L17.04-41.36L17.04-41.36Q16.05-40.47 15.98-38.41L15.98-38.41L15.12-7.95L15.12-7.95Q15.05-5.11 15.69-4.12L15.69-4.12L15.69-4.12Q16.33-3.12 18.25-3.12L18.25-3.12L18.25-3.12Q19.31-3.12 20.24-3.20L20.24-3.20L20.24-3.20Q21.16-3.27 21.44-3.34L21.44-3.34L21.58-3.05L20.95 0.21L20.95 0.21Q20.02 0.14 17.47 0.07L17.47 0.07L17.47 0.07Q14.91 0 12.21 0L12.21 0L4.05 0.07L4.76-3.12L4.76-3.12Q7.03-3.34 8.13-3.83L8.13-3.83L8.13-3.83Q9.23-4.33 9.66-5.40L9.66-5.40L9.66-5.40Q10.08-6.46 10.08-8.52L10.08-8.52L10.15-38.34ZM17.25-23.36L29.96-36.57L29.96-36.57Q32.16-38.77 32.16-40.26L32.16-40.26L32.16-40.26Q32.16-42.10 27.69-42.39L27.69-42.39L27.55-42.67L28.05-45.72L28.05-45.72Q28.90-45.65 31.56-45.44L31.56-45.44L31.56-45.44Q34.22-45.23 35.86-45.23L35.86-45.23L35.86-45.23Q37.56-45.23 39.65-45.33L39.65-45.33L39.65-45.33Q41.75-45.44 42.39-45.51L42.39-45.51L42.67-45.01L42.17-42.10L42.17-42.10Q40.33-41.75 38.77-40.61L38.77-40.61L38.77-40.61Q37.20-39.48 34.01-36.14L34.01-36.14L22.58-24.14L34.51-8.59L34.51-8.59Q37.06-5.25 39.09-3.91L39.09-3.91L39.09-3.91Q41.11-2.56 43.59-2.56L43.59-2.56L43.88-2.27L43.45 0.14L43.45 0.14Q42.67 0.28 40.36 0.64L40.36 0.64L40.36 0.64Q38.06 0.99 37.56 0.99L37.56 0.99L37.56 0.99Q35.86 0.99 33.80-0.60L33.80-0.60L33.80-0.60Q31.74-2.20 29.61-5.11L29.61-5.11L17.18-22.37L17.25-23.36ZM85.06 2.84L85.06 2.84Q78.88-6.75 73.02-15.44L73.02-15.44L73.02-15.44Q67.17-24.14 63.40-29.50L63.40-29.50L63.40-29.50Q59.64-34.86 58.65-36.28L58.65-36.28L58.29-36.28L57.94-5.96L57.94-5.96Q57.94-4.40 58.43-3.76L58.43-3.76L58.43-3.76Q58.93-3.12 60.14-3.12L60.14-3.12L63.76-3.20L63.90-2.91L63.26 0.28L63.26 0.28Q62.48 0.21 60.07 0.11L60.07 0.11L60.07 0.11Q57.65 0 55.74 0L55.74 0L55.74 0Q53.96 0 51.87 0.25L51.87 0.25L51.87 0.25Q49.77 0.50 49.13 0.57L49.13 0.57L49.49-2.70L49.49-2.70Q51.69-2.98 52.75-4.01L52.75-4.01L52.75-4.01Q53.82-5.04 53.89-7.17L53.89-7.17L54.81-38.20L54.81-38.20Q54.81-40.40 53.50-41.32L53.50-41.32L53.50-41.32Q52.19-42.25 48.64-42.60L48.64-42.60L48.42-42.96L48.99-45.58L48.99-45.58Q49.63-45.51 51.76-45.37L51.76-45.37L51.76-45.37Q53.89-45.23 55.10-45.23L55.10-45.23L55.10-45.23Q56.59-45.23 58.01-45.33L58.01-45.33L58.01-45.33Q59.43-45.44 59.85-45.51L59.85-45.51L59.85-45.51Q65.11-37.35 70.40-29.54L70.40-29.54L70.40-29.54Q75.69-21.73 79.24-16.69L79.24-16.69L79.24-16.69Q82.79-11.64 83.71-10.30L83.71-10.30L84.06-10.30L84.06-39.05L84.06-39.05Q84.06-42.10 81.72-42.10L81.72-42.10L79.02-42.03L78.88-42.32L79.52-45.51L79.52-45.51Q80.23-45.44 82.22-45.33L82.22-45.33L82.22-45.33Q84.21-45.23 86.27-45.23L86.27-45.23L86.27-45.23Q88.11-45.23 90.35-45.48L90.35-45.48L90.35-45.48Q92.58-45.72 93.29-45.80L93.29-45.80L92.94-42.53L92.94-42.53Q90.45-42.17 89.32-41.14L89.32-41.14L89.32-41.14Q88.18-40.12 88.11-38.06L88.11-38.06L87.12 1.85L85.06 2.84Z" fill="#ffffff"></path></g></g><style>text {
  font-size: 64px;
  font-family: Arial Black;
  dominant-baseline: central;
  text-anchor: middle;
}</style></svg>